<svg xmlns="http://www.w3.org/2000/svg">
  <symbol id="facebook" viewBox="0 0 24 24">
    <path fill="currentColor" d="M13.5 21v-7.2h2.4l.4-3h-2.8V8.7c0-.9.3-1.5 1.5-1.5h1.4V4.5c-.2 0-1-.1-1.9-.1-2 0-3.4 1.2-3.4 3.5v2.9H8.8v3h2.3V21h2.4Z"/>
  </symbol>
  <symbol id="youtube" viewBox="0 0 24 24">
    <path fill="currentColor" d="M19.8 7.1c-.2-.8-.8-1.4-1.6-1.7C16.7 5 12 5 12 5s-4.7 0-6.2.4c-.8.3-1.4.9-1.6 1.7C4 8.6 4 12 4 12s0 3.4.2 4.9c.2.8.8 1.4 1.6 1.7 1.5.4 6.2.4 6.2.4s4.7 0 6.2-.4c.8-.3 1.4-.9 1.6-1.7.2-1.5.2-4.9.2-4.9s0-3.4-.2-4.9ZM10 15.6V8.4l6.2 3.6-6.2 3.6Z"/>
  </symbol>
  <symbol id="instagram" viewBox="0 0 24 24">
    <path fill="currentColor" d="M7.5 3h9A4.5 4.5 0 0 1 21 7.5v9a4.5 4.5 0 0 1-4.5 4.5h-9A4.5 4.5 0 0 1 3 16.5v-9A4.5 4.5 0 0 1 7.5 3Zm0 1.8a2.7 2.7 0 0 0-2.7 2.7v9a2.7 2.7 0 0 0 2.7 2.7h9a2.7 2.7 0 0 0 2.7-2.7v-9a2.7 2.7 0 0 0-2.7-2.7h-9Zm9.6 1.3a1.1 1.1 0 1 1 0 2.2 1.1 1.1 0 0 1 0-2.2ZM12 7.3a4.7 4.7 0 1 1 0 9.4 4.7 4.7 0 0 1 0-9.4Zm0 1.8a2.9 2.9 0 1 0 0 5.8 2.9 2.9 0 0 0 0-5.8Z"/>
  </symbol>
  <symbol id="x" viewBox="0 0 24 24">
    <path fill="currentColor" d="M18.9 3H22l-6.8 7.8L23 21h-6.2l-4.9-6.3L6.4 21H3.3l7.3-8.3L1 3h6.3l4.4 5.7L18.9 3Zm-1.1 16h1.7L6.3 4.9H4.6L17.8 19Z"/>
  </symbol>
</svg>
